<svg width="960" height="388.1" xmlns="http://www.w3.org/2000/svg" xml:space="preserve" version="1.1">
 <title>Godot Game engine logo</title>
 <desc>A free and open source cross-platform game engine</desc>
 <metadata>image/svg+xml</metadata>
 <defs>
  <clipPath id="vlpa">
   <path id="svg_1" d="m0,595.3l841.9,0l0,-595.3l-841.9,0l0,595.3z"/>
  </clipPath>
 </defs>
 <g>
  <title>Layer 1</title>
  <g id="svg_2" transform="matrix(1.25 0 0 -1.25 -94.25 597.5)">
   <g id="svg_3" clip-path="url(#vlpa)">
    <g id="svg_4" stroke-width="0.8841" transform="matrix(1.131 0 0 1.131 531.4 355.3)">
     <path id="svg_5" fill="#414042" d="m0,0c-3.611,0 -6.636,-1.659 -9.09,-4.967c-2.441,-3.311 -3.668,-7.958 -3.668,-13.94c0,-5.993 1.166,-10.58 3.503,-13.78c2.333,-3.207 5.398,-4.804 9.2,-4.804c3.8,0 6.887,1.617 9.258,4.862c2.371,3.233 3.559,7.861 3.559,13.89c0,6.02 -1.227,10.65 -3.673,13.89c-2.443,3.232 -5.473,4.849 -9.089,4.849m-0.055,-59.49c-10.57,0 -19.2,3.46 -25.86,10.38c-6.655,6.925 -9.984,17.03 -9.984,30.31c0,13.29 3.367,23.36 10.1,30.21c6.736,6.844 15.43,10.27 26.08,10.27c10.65,0 19.25,-3.363 25.79,-10.11c6.555,-6.733 9.827,-16.94 9.827,-30.59c0,-13.66 -3.348,-23.82 -10.05,-30.49c-6.702,-6.654 -15.33,-9.981 -25.91,-9.981"/>
    </g>
    <g id="svg_6" stroke-width="0.8841" transform="matrix(1.131 0 0 1.131 607.9 354.4)">
     <path id="svg_7" fill="#414042" d="m0,0l0,-33.77c0,-1.577 0.116,-2.571 0.342,-2.988c0.224,-0.415 0.903,-0.623 2.029,-0.623c4.144,0 7.283,1.548 9.429,4.634c2.151,3.083 3.215,8.216 3.215,15.4c0,7.192 -1.113,11.88 -3.325,14.06c-2.223,2.183 -5.744,3.285 -10.56,3.285l-1.13,0.002zm-21.68,-52.39l0,67.74c0,1.883 0.468,3.369 1.413,4.471c0.939,1.085 2.161,1.636 3.671,1.636l18.85,0c11.96,0 21.05,-3.018 27.26,-9.04c6.215,-6.02 9.322,-15.5 9.322,-28.45c0,-27.7 -11.82,-41.55 -35.46,-41.55l-19.3,0c-3.836,0 -5.759,1.727 -5.759,5.192"/>
    </g>
    <g id="svg_8" stroke-width="0.8841" transform="matrix(1.131 0 0 1.131 700.8 355.3)">
     <path id="svg_9" fill="#414042" d="m0,0c-3.612,0 -6.645,-1.659 -9.095,-4.967c-2.44,-3.311 -3.662,-7.958 -3.662,-13.94c0,-5.993 1.169,-10.58 3.499,-13.78c2.33,-3.207 5.398,-4.804 9.2,-4.804c3.801,0 6.89,1.617 9.258,4.862c2.372,3.233 3.56,7.861 3.56,13.89c0,6.02 -1.225,10.65 -3.671,13.89c-2.447,3.232 -5.473,4.849 -9.089,4.849m-0.058,-59.49c-10.58,0 -19.19,3.46 -25.85,10.38c-6.663,6.925 -9.993,17.03 -9.993,30.31c0,13.29 3.367,23.36 10.1,30.21c6.741,6.844 15.43,10.27 26.09,10.27c10.65,0 19.25,-3.363 25.8,-10.11c6.55,-6.733 9.822,-16.94 9.822,-30.59c0,-13.66 -3.349,-23.82 -10.05,-30.49c-6.699,-6.654 -15.34,-9.981 -25.91,-9.981"/>
    </g>
    <g id="svg_10" stroke-width="0.8841" transform="matrix(1.131 0 0 1.131 789 291.3)">
     <path id="svg_11" fill="#414042" d="m0,0c0,-1.496 -3.721,-2.255 -11.18,-2.255c-7.448,0 -11.18,0.759 -11.18,2.255l0,56.68l-13.54,0c-1.281,0 -2.185,1.727 -2.71,5.198c-0.226,1.652 -0.334,3.343 -0.334,5.077c0,1.724 0.108,3.422 0.334,5.077c0.525,3.462 1.429,5.202 2.71,5.202l49.11,0c1.279,0 2.179,-1.74 2.712,-5.202c0.221,-1.655 0.335,-3.353 0.335,-5.077c0,-1.734 -0.114,-3.425 -0.335,-5.077c-0.533,-3.471 -1.433,-5.198 -2.712,-5.198l-13.21,0l0,-56.68z"/>
    </g>
    <g id="svg_12" stroke-width="0.8841" transform="matrix(1.131 0 0 1.131 468.3 336.7)">
     <path id="svg_13" fill="#414042" d="m0,0c-6.078,0.094 -13.03,-1.173 -13.03,-1.173l0,-11.86l6.995,0l-0.078,-5.288c0,-1.959 -1.942,-2.943 -5.815,-2.943c-3.878,0 -7.303,1.642 -10.27,4.917c-2.978,3.279 -4.459,8.072 -4.459,14.39c0,6.329 1.447,11 4.345,14.01c2.892,3.008 6.683,4.517 11.35,4.517c1.959,0 3.987,-0.316 6.096,-0.961c2.11,-0.639 3.519,-1.238 4.238,-1.799c0.713,-0.577 1.391,-0.85 2.032,-0.85c0.638,0 1.671,0.746 3.1,2.255c1.431,1.505 2.713,3.786 3.844,6.827c1.126,3.057 1.69,5.4 1.69,7.062c0,1.649 -0.036,2.786 -0.109,3.386c-1.581,1.73 -4.499,3.102 -8.755,4.122c-4.248,1.017 -9.011,1.522 -14.28,1.522c-11.59,0 -20.66,-3.65 -27.21,-10.95c-6.552,-7.303 -9.822,-16.78 -9.822,-28.45c0,-13.7 3.347,-24.09 10.04,-31.16c6.706,-7.074 15.51,-10.61 26.42,-10.61c5.87,0 11.08,0.505 15.63,1.522c4.557,1.013 7.586,2.053 9.093,3.105l0.452,35.33c0,2.053 -5.418,2.985 -11.5,3.089"/>
    </g>
    <g id="svg_14" stroke-width="0.8841" transform="matrix(1.131 0 0 1.131 441.3 235.8)">
     <path id="svg_15" fill="#6d6e71" d="m0,0c-0.624,-1.28 -1.771,-2.454 -3.449,-3.516c-1.676,-1.069 -3.805,-1.6 -6.391,-1.6c-3.412,0 -6.156,1.075 -8.24,3.249c-2.076,2.157 -3.116,5.266 -3.116,9.323l0,10.12c0,3.969 0.98,7.013 2.946,9.138c1.962,2.108 4.59,3.177 7.872,3.177c3.208,0 5.695,-0.844 7.455,-2.513c1.755,-1.675 2.677,-4.015 2.757,-7.003l-0.044,-0.133l-2.619,0c-0.094,2.29 -0.759,4.057 -2.01,5.305c-1.244,1.238 -3.095,1.864 -5.539,1.864c-2.473,0 -4.432,-0.837 -5.866,-2.516c-1.43,-1.675 -2.143,-4.103 -2.143,-7.293l0,-10.17c0,-3.308 0.771,-5.83 2.311,-7.567c1.54,-1.724 3.616,-2.588 6.236,-2.588c1.913,0 3.451,0.339 4.602,1.033c1.155,0.684 1.956,1.519 2.409,2.51l0,8.861l-7.06,0l0,2.463l9.889,0l0,-12.144z"/>
    </g>
    <g id="svg_16" stroke-width="0.8841" transform="matrix(1.131 0 0 1.131 456 232.8)">
     <path id="svg_17" fill="#6d6e71" d="m0,0c1.553,0 2.936,0.44 4.144,1.336c1.21,0.9 2.058,2.037 2.561,3.422l0,5.468l-4.492,0c-1.91,0 -3.44,-0.541 -4.585,-1.623c-1.148,-1.075 -1.716,-2.418 -1.716,-4.015c0,-1.349 0.355,-2.457 1.074,-3.311c0.718,-0.857 1.722,-1.277 3.014,-1.277m7.124,-2.04c-0.14,0.876 -0.249,1.587 -0.318,2.144c-0.067,0.567 -0.101,1.131 -0.101,1.704c-0.767,-1.254 -1.757,-2.294 -2.98,-3.109c-1.221,-0.821 -2.579,-1.228 -4.075,-1.228c-2.092,0 -3.701,0.648 -4.84,1.946c-1.132,1.303 -1.704,3.059 -1.704,5.276c0,2.343 0.823,4.223 2.473,5.618c1.649,1.395 3.89,2.092 6.709,2.092l4.417,0l0,3.106c0,1.786 -0.456,3.193 -1.351,4.21c-0.914,1.004 -2.17,1.512 -3.791,1.512c-1.508,0 -2.752,-0.479 -3.728,-1.45c-0.973,-0.965 -1.456,-2.144 -1.456,-3.549l-2.623,0.023l-0.046,0.137c-0.074,1.906 0.647,3.591 2.168,5.084c1.515,1.489 3.459,2.229 5.825,2.229c2.338,0 4.22,-0.711 5.657,-2.128c1.429,-1.431 2.146,-3.471 2.146,-6.124l0,-12.4c0,-0.903 0.042,-1.78 0.121,-2.617c0.081,-0.848 0.212,-1.665 0.417,-2.48l-2.92,0.004z"/>
    </g>
    <g id="svg_18" stroke-width="0.8841" transform="matrix(1.131 0 0 1.131 476.7 259.1)">
     <path id="svg_19" fill="#6d6e71" d="m0,0l0.24,-3.923c0.664,1.404 1.554,2.486 2.657,3.255c1.107,0.759 2.41,1.138 3.906,1.138c1.527,0 2.814,-0.444 3.852,-1.343c1.039,-0.896 1.805,-2.252 2.292,-4.074c0.623,1.682 1.505,3.011 2.65,3.973c1.145,0.964 2.534,1.444 4.143,1.444c2.217,0 3.937,-0.897 5.156,-2.692c1.224,-1.799 1.834,-4.559 1.834,-8.288l0,-14.76l-2.823,0l0,14.81c0,3.1 -0.429,5.283 -1.263,6.538c-0.839,1.257 -2.042,1.89 -3.598,1.89c-1.637,0 -2.915,-0.691 -3.834,-2.096c-0.914,-1.405 -1.478,-3.161 -1.683,-5.282l0,-15.86l-2.809,0l0,14.8c0,3.027 -0.424,5.194 -1.292,6.488c-0.864,1.294 -2.066,1.936 -3.609,1.936c-1.475,0 -2.668,-0.45 -3.562,-1.342c-0.9,-0.897 -1.54,-2.125 -1.928,-3.683l0,-18.2l-2.806,0l0,25.28l2.477,-0.009z"/>
    </g>
    <g id="svg_20" stroke-width="0.8841" transform="matrix(1.131 0 0 1.131 522.8 256.8)">
     <path id="svg_21" fill="#6d6e71" d="m0,0c-1.758,0 -3.202,-0.802 -4.334,-2.402c-1.133,-1.606 -1.718,-3.585 -1.765,-5.944l11.66,0l0,1.082c0,2.086 -0.489,3.823 -1.469,5.201c-0.986,1.379 -2.347,2.063 -4.092,2.063m0.397,-23.76c-2.725,0 -4.954,1.026 -6.685,3.073c-1.726,2.043 -2.591,4.657 -2.591,7.841l0,4.197c0,3.19 0.867,5.85 2.602,7.965c1.739,2.105 3.828,3.158 6.277,3.158c2.648,0 4.699,-0.939 6.164,-2.823c1.468,-1.887 2.201,-4.422 2.201,-7.603l0,-2.773l-14.46,0l0,-2.102c0,-2.447 0.586,-4.484 1.752,-6.11c1.168,-1.63 2.755,-2.438 4.744,-2.438c1.382,0 2.585,0.244 3.588,0.724c1.003,0.491 1.863,1.179 2.578,2.082l1.149,-1.988c-0.763,-0.968 -1.752,-1.75 -2.959,-2.33c-1.204,-0.577 -2.659,-0.873 -4.356,-0.873"/>
    </g>
    <g id="svg_22" stroke-width="0.8841" transform="matrix(1.131 0 0 1.131 558.1 256.8)">
     <path id="svg_23" fill="#6d6e71" d="m0,0c-1.763,0 -3.21,-0.802 -4.341,-2.402c-1.126,-1.606 -1.712,-3.585 -1.763,-5.944l11.66,0l0,1.082c0,2.086 -0.488,3.823 -1.474,5.201c-0.981,1.379 -2.341,2.063 -4.085,2.063m0.394,-23.76c-2.726,0 -4.951,1.026 -6.679,3.073c-1.733,2.043 -2.6,4.657 -2.6,7.841l0,4.197c0,3.19 0.871,5.85 2.602,7.965c1.744,2.105 3.834,3.158 6.283,3.158c2.643,0 4.703,-0.939 6.164,-2.823c1.463,-1.887 2.197,-4.422 2.197,-7.603l0,-2.773l-14.46,0l0,-2.102c0,-2.447 0.587,-4.484 1.76,-6.11c1.162,-1.63 2.742,-2.438 4.738,-2.438c1.387,0 2.585,0.244 3.585,0.724c1.007,0.491 1.866,1.179 2.589,2.082l1.141,-1.988c-0.764,-0.968 -1.75,-1.75 -2.959,-2.33c-1.204,-0.577 -2.658,-0.873 -4.356,-0.873"/>
    </g>
    <g id="svg_24" stroke-width="0.8841" transform="matrix(1.131 0 0 1.131 575.9 259.1)">
     <path id="svg_25" fill="#6d6e71" d="m0,0l0.23,-4.178c0.674,1.483 1.564,2.634 2.682,3.435c1.108,0.805 2.413,1.213 3.914,1.213c2.258,0 3.988,-0.835 5.189,-2.513c1.214,-1.675 1.815,-4.279 1.815,-7.812l0,-15.42l-2.825,0l0,15.39c0,2.888 -0.423,4.905 -1.264,6.075c-0.836,1.17 -2.065,1.753 -3.665,1.753c-1.435,0 -2.638,-0.466 -3.603,-1.414c-0.969,-0.939 -1.691,-2.19 -2.172,-3.767l0,-18.04l-2.805,0l0,25.28l2.504,-0.002z"/>
    </g>
    <g id="svg_26" stroke-width="0.8841" transform="matrix(1.131 0 0 1.131 600.9 242.3)">
     <path id="svg_27" fill="#6d6e71" d="m0,0c0,-2.565 0.486,-4.605 1.472,-6.123c0.974,-1.532 2.457,-2.288 4.436,-2.288c1.356,0 2.498,0.361 3.435,1.101c0.934,0.74 1.672,1.77 2.218,3.077l0,12.52c-0.525,1.346 -1.246,2.434 -2.157,3.272c-0.91,0.824 -2.062,1.238 -3.448,1.238c-1.975,0 -3.468,-0.86 -4.46,-2.587c-0.999,-1.73 -1.496,-3.986 -1.496,-6.756l0,-3.454zm-2.833,3.454c0,3.582 0.723,6.459 2.177,8.627c1.442,2.157 3.448,3.239 6.004,3.239c1.419,0 2.664,-0.346 3.728,-1.04c1.066,-0.681 1.947,-1.678 2.654,-2.946l0.274,3.516l2.381,0l0,-25.3c0,-3.239 -0.751,-5.749 -2.26,-7.525c-1.511,-1.769 -3.657,-2.665 -6.428,-2.665c-0.996,0 -2.067,0.156 -3.212,0.459c-1.147,0.303 -2.162,0.701 -3.052,1.2l0.776,2.463c0.759,-0.492 1.608,-0.873 2.548,-1.141c0.932,-0.277 1.895,-0.41 2.894,-0.41c2.009,0 3.498,0.645 4.46,1.932c0.966,1.304 1.45,3.19 1.45,5.687l0,3.057c-0.717,-1.138 -1.597,-2.011 -2.64,-2.614c-1.039,-0.606 -2.253,-0.909 -3.622,-0.909c-2.539,0 -4.53,0.994 -5.968,2.982c-1.441,1.984 -2.164,4.631 -2.164,7.932l0,3.456z"/>
    </g>
    <path id="svg_28" fill="#6d6e71" d="m627.8,230.5l-3.201,0l0,28.59l3.201,0l0,-28.59zm0,36.73l-3.201,0l0,4.504l3.201,0l0,-4.504z"/>
    <g id="svg_29" stroke-width="0.8841" transform="matrix(1.131 0 0 1.131 638.2 259.1)">
     <path id="svg_30" fill="#6d6e71" d="m0,0l0.23,-4.178c0.676,1.483 1.562,2.634 2.678,3.435c1.115,0.805 2.422,1.213 3.916,1.213c2.258,0 3.995,-0.835 5.199,-2.513c1.211,-1.675 1.807,-4.279 1.807,-7.812l0,-15.42l-2.825,0l0,15.39c0,2.888 -0.422,4.905 -1.261,6.075c-0.843,1.17 -2.063,1.753 -3.668,1.753c-1.434,0 -2.635,-0.466 -3.599,-1.414c-0.967,-0.939 -1.692,-2.19 -2.171,-3.767l0,-18.04l-2.809,0l0,25.28l2.503,-0.002z"/>
    </g>
    <g id="svg_31" stroke-width="0.8841" transform="matrix(1.131 0 0 1.131 669.7 256.8)">
     <path id="svg_32" fill="#6d6e71" d="m0,0c-1.763,0 -3.208,-0.802 -4.334,-2.402c-1.129,-1.606 -1.718,-3.585 -1.768,-5.944l11.66,0l0,1.082c0,2.086 -0.486,3.823 -1.47,5.201c-0.981,1.379 -2.343,2.063 -4.09,2.063m0.401,-23.76c-2.733,0 -4.958,1.026 -6.681,3.073c-1.73,2.043 -2.595,4.657 -2.595,7.841l0,4.197c0,3.19 0.865,5.85 2.6,7.965c1.739,2.105 3.831,3.158 6.275,3.158c2.646,0 4.706,-0.939 6.172,-2.823c1.462,-1.887 2.195,-4.422 2.195,-7.603l0,-2.773l-14.47,0l0,-2.102c0,-2.447 0.59,-4.484 1.757,-6.11c1.166,-1.63 2.748,-2.438 4.746,-2.438c1.382,0 2.579,0.244 3.578,0.724c1.012,0.491 1.869,1.179 2.591,2.082l1.147,-1.988c-0.769,-0.968 -1.755,-1.75 -2.962,-2.33c-1.203,-0.577 -2.658,-0.873 -4.354,-0.873"/>
    </g>
    <g id="svg_33" stroke-width="0.8841" transform="matrix(1.131 0 0 1.131 348.1 279.3)">
     <path id="svg_34" fill="#fff" d="m0,0s-0.325,1.994 -0.515,1.976l-36.18,-3.491c-2.879,-0.278 -5.115,-2.574 -5.317,-5.459l-0.994,-14.25l-27.99,-1.997l-1.904,12.91c-0.424,2.872 -2.932,5.037 -5.835,5.037l-38.19,0c-2.902,0 -5.41,-2.165 -5.834,-5.037l-1.905,-12.91l-27.99,1.997l-0.994,14.25c-0.202,2.886 -2.438,5.182 -5.317,5.46l-36.2,3.49c-0.187,0.018 -0.324,-1.978 -0.511,-1.978l-0.049,-7.83l30.66,-4.944l1.004,-14.37c0.203,-2.91 2.551,-5.263 5.463,-5.472l38.55,-2.75c0.146,-0.01 0.29,-0.016 0.434,-0.016c2.897,0 5.401,2.166 5.825,5.038l1.959,13.29l28,0l1.959,-13.29c0.423,-2.871 2.93,-5.037 5.831,-5.037c0.142,0 0.284,0.005 0.423,0.015l38.56,2.75c2.911,0.209 5.26,2.562 5.463,5.472l1.003,14.37l30.64,4.966l-0.049,7.81z"/>
    </g>
    <g id="svg_35" stroke-width="0.8841" transform="matrix(1.131 0 0 1.131 126.8 346)">
     <path id="svg_36" fill="#478cbf" d="m0,0l0,-59.04c0.108,-0.001 0.216,-0.005 0.323,-0.015l36.2,-3.49c1.896,-0.183 3.382,-1.709 3.514,-3.609l1.116,-15.98l31.57,-2.253l2.175,14.75c0.282,1.912 1.922,3.329 3.856,3.329l38.19,0c1.933,0 3.573,-1.417 3.855,-3.329l2.175,-14.75l31.58,2.253l1.115,15.98c0.133,1.9 1.618,3.425 3.514,3.609l36.18,3.49c0.107,0.01 0.214,0.014 0.322,0.015l0,4.711l0.015,0.005l0,54.32l0.134,0c4.795,6.12 9.232,12.57 13.49,19.45c-5.651,9.62 -12.58,18.22 -19.98,26.18c-6.864,-3.455 -13.53,-7.369 -19.83,-11.53c-3.151,3.132 -6.7,5.694 -10.19,8.372c-3.425,2.751 -7.285,4.768 -10.95,7.118c1.09,8.117 1.629,16.11 1.846,24.45c-9.446,4.754 -19.52,7.906 -29.71,10.17c-4.068,-6.837 -7.788,-14.24 -11.03,-21.48c-3.842,0.642 -7.702,0.88 -11.57,0.926l0,0.006c-0.027,0 -0.052,-0.006 -0.075,-0.006c-0.024,0 -0.049,0.006 -0.073,0.006l0,-0.006c-3.872,-0.046 -7.729,-0.284 -11.57,-0.926c-3.238,7.238 -6.956,14.64 -11.03,21.48c-10.18,-2.264 -20.26,-5.416 -29.7,-10.17c0.216,-8.34 0.755,-16.33 1.848,-24.45c-3.668,-2.35 -7.523,-4.367 -10.95,-7.118c-3.481,-2.678 -7.036,-5.24 -10.19,-8.372c-6.297,4.165 -12.96,8.079 -19.83,11.53c-7.401,-7.965 -14.32,-16.56 -19.97,-26.18c4.253,-6.88 8.693,-13.33 13.49,-19.45l0.14,0.004z"/>
    </g>
    <g id="svg_37" stroke-width="0.8841" transform="matrix(1.131 0 0 1.131 311.4 266.9)">
     <path id="svg_38" fill="#478cbf" d="m0,0l-1.121,-16.06c-0.135,-1.936 -1.675,-3.477 -3.611,-3.616l-38.56,-2.751c-0.094,-0.007 -0.188,-0.01 -0.281,-0.01c-1.916,0 -3.569,1.406 -3.852,3.33l-2.211,14.99l-31.46,0l-2.211,-14.99c-0.297,-2.018 -2.101,-3.469 -4.133,-3.32l-38.56,2.751c-1.936,0.139 -3.476,1.68 -3.611,3.616l-1.121,16.06l-32.55,3.138c0.015,-3.498 0.06,-7.33 0.06,-8.093c0,-34.37 43.6,-50.9 97.78,-51.09l0.133,0c54.18,0.19 97.77,16.71 97.77,51.09c0,0.777 0.047,4.593 0.063,8.093l-32.524,-3.138z"/>
    </g>
    <g id="svg_39" stroke-width="0.8841" transform="matrix(1.131 0 0 1.131 204.1 318.9)">
     <path id="svg_40" fill="#fff" d="m0,0c0,-12.05 -9.765,-21.82 -21.81,-21.82c-12.04,0 -21.81,9.763 -21.81,21.82c0,12.04 9.768,21.8 21.81,21.8c12.05,0 21.81,-9.758 21.81,-21.8"/>
    </g>
    <g id="svg_41" stroke-width="0.8841" transform="matrix(1.131 0 0 1.131 198.2 317.5)">
     <path id="svg_42" fill="#414042" d="m0,0c0,-7.994 -6.479,-14.47 -14.48,-14.47c-7.996,0 -14.48,6.479 -14.48,14.47s6.483,14.48 14.48,14.48c8,0 14.48,-6.485 14.48,-14.48"/>
    </g>
    <g id="svg_43" stroke-width="0.8841" transform="matrix(1.131 0 0 1.131 237.5 292)">
     <path id="svg_44" fill="#fff" d="m0,0c-3.878,0 -7.021,2.858 -7.021,6.381l0,20.08c0,3.52 3.143,6.381 7.021,6.381s7.028,-2.861 7.028,-6.381l0,-20.08c0,-3.523 -3.15,-6.381 -7.028,-6.381"/>
    </g>
    <g id="svg_45" stroke-width="0.8841" transform="matrix(1.131 0 0 1.131 270.8 318.9)">
     <path id="svg_46" fill="#fff" d="m0,0c0,-12.05 9.765,-21.82 21.82,-21.82c12.04,0 21.81,9.763 21.81,21.82c0,12.04 -9.767,21.8 -21.81,21.8c-12.05,0 -21.82,-9.758 -21.82,-21.8"/>
    </g>
    <g id="svg_47" stroke-width="0.8841" transform="matrix(1.131 0 0 1.131 276.8 317.5)">
     <path id="svg_48" fill="#414042" d="m0,0c0,-7.994 6.477,-14.47 14.47,-14.47c8.002,0 14.48,6.479 14.48,14.47s-6.477,14.48 -14.48,14.48c-7.994,0 -14.47,-6.485 -14.47,-14.48"/>
    </g>
   </g>
  </g>
  <text font-weight="bold" xml:space="preserve" text-anchor="start" font-family="'Andada Pro'" font-size="50" id="svg_49" y="83.95" x="426" stroke-width="0" stroke="#000" fill="#000000">Gamedev Update #1</text>
 </g>
</svg>